<?xml version="1.0" encoding="UTF-8" standalone="no"?>
<!DOCTYPE svg PUBLIC "-//W3C//DTD SVG 1.1//EN"
 "http://www.w3.org/Graphics/SVG/1.1/DTD/svg11.dtd">
<!-- Generated by graphviz version 14.1.3 (20260303.0454)
 -->
<!-- Title: argument Pages: 1 -->
<svg width="2462pt" height="1113pt"
 viewBox="0.00 0.00 2462.00 1113.00" xmlns="http://www.w3.org/2000/svg" xmlns:xlink="http://www.w3.org/1999/xlink">
<g id="graph0" class="graph" transform="scale(1 1) rotate(0) translate(4 1108.65)">
<title>argument</title>
<polygon fill="white" stroke="none" points="-4,4 -4,-1108.65 2457.5,-1108.65 2457.5,4 -4,4"/>
<text xml:space="preserve" text-anchor="middle" x="1226.75" y="-1085.45" font-family="Times,serif" font-size="16.00">Obergefell majority constitutional holding</text>
<text xml:space="preserve" text-anchor="middle" x="1226.75" y="-1066.7" font-family="Times,serif" font-size="16.00">admissible: true | counterexample: false | preserves truth: true</text>
<g id="clust1" class="cluster">
<title>cluster_55e04b2a</title>
<polygon fill="none" stroke="#00cd00" stroke-width="2" points="8,-344.5 8,-975.65 797,-975.65 797,-344.5 8,-344.5"/>
<text xml:space="preserve" text-anchor="middle" x="402.5" y="-956.45" font-family="Times,serif" font-size="16.00">Fundamental&#45;right reasoning extends to same&#45;sex co</text>
<text xml:space="preserve" text-anchor="middle" x="402.5" y="-937.7" font-family="Times,serif" font-size="16.00">(((((Marriage_Fundamental ∧ Reasons_Apply_Equally)) ∧ Exclusion_Burdens_Rights)) → SS_Couples_May_Marry)</text>
</g>
<g id="clust2" class="cluster">
<title>cluster_5c5a9c0d</title>
<polygon fill="none" stroke="goldenrod" stroke-width="2" points="1538,-344.5 1538,-752.86 2198,-752.86 2198,-344.5 1538,-344.5"/>
<text xml:space="preserve" text-anchor="middle" x="1868" y="-733.66" font-family="Times,serif" font-size="16.00">States must license and recognize same&#45;sex marriag</text>
<text xml:space="preserve" text-anchor="middle" x="1868" y="-714.91" font-family="Times,serif" font-size="16.00">(((SS_Couples_May_Marry ∧ No_Basis_Deny_Recognition)) → States_Must_License_Recognize)</text>
</g>
<g id="clust3" class="cluster">
<title>cluster_b2df5124</title>
<polygon fill="none" stroke="red" stroke-width="2" points="1125,-344.5 1125,-529.89 1530,-529.89 1530,-344.5 1125,-344.5"/>
<text xml:space="preserve" text-anchor="middle" x="1327.5" y="-510.69" font-family="Times,serif" font-size="16.00">Marriage right defeats recognition bans</text>
<text xml:space="preserve" text-anchor="middle" x="1327.5" y="-491.94" font-family="Times,serif" font-size="16.00">(SS_Couples_May_Marry → No_Basis_Deny_Recognition)</text>
</g>
<g id="clust4" class="cluster">
<title>cluster_claims</title>
</g>
<!-- 1492ed96 -->
<g id="node1" class="node">
<title>1492ed96</title>
<polygon fill="#d4edda" stroke="green" points="567,-472.25 523.33,-454.25 567,-436.25 610.67,-454.25 567,-472.25"/>
<polygon fill="none" stroke="green" points="567,-476.58 512.83,-454.25 567,-431.92 621.17,-454.25 567,-476.58"/>
<text xml:space="preserve" text-anchor="middle" x="567" y="-449.2" font-family="Times,serif" font-size="14.00">AND</text>
</g>
<!-- 711407c3 -->
<g id="node5" class="node">
<title>711407c3</title>
<polygon fill="#d4edda" stroke="black" points="642.12,-388.5 491.88,-388.5 491.88,-352.5 642.12,-352.5 642.12,-388.5"/>
<text xml:space="preserve" text-anchor="middle" x="567" y="-365.45" font-family="Times,serif" font-size="14.00">Reasons_Apply_Equally</text>
</g>
<!-- 1492ed96&#45;&gt;711407c3 -->
<g id="edge8" class="edge">
<title>1492ed96&#45;&gt;711407c3</title>
<path fill="none" stroke="black" d="M567,-431.77C567,-422.18 567,-410.74 567,-400.41"/>
<polygon fill="black" stroke="black" points="570.5,-400.5 567,-390.5 563.5,-400.5 570.5,-400.5"/>
</g>
<!-- eae25b34 -->
<g id="node9" class="node">
<title>eae25b34</title>
<polygon fill="#d4edda" stroke="black" points="452.12,-388.5 307.88,-388.5 307.88,-352.5 452.12,-352.5 452.12,-388.5"/>
<text xml:space="preserve" text-anchor="middle" x="380" y="-365.45" font-family="Times,serif" font-size="14.00">Marriage_Fundamental</text>
</g>
<!-- 1492ed96&#45;&gt;eae25b34 -->
<g id="edge5" class="edge">
<title>1492ed96&#45;&gt;eae25b34</title>
<path fill="none" stroke="black" d="M541.39,-442.05C512.89,-429.6 466.14,-409.16 430.28,-393.48"/>
<polygon fill="black" stroke="black" points="431.95,-390.39 421.39,-389.59 429.15,-396.81 431.95,-390.39"/>
</g>
<!-- 2e9a346b -->
<g id="node2" class="node">
<title>2e9a346b</title>
<polygon fill="#d4edda" stroke="black" points="788.75,-833.86 633.25,-833.86 633.25,-797.86 788.75,-797.86 788.75,-833.86"/>
<text xml:space="preserve" text-anchor="middle" x="711" y="-810.81" font-family="Times,serif" font-size="14.00">SS_Couples_May_Marry</text>
</g>
<!-- var_67ca1f55 -->
<g id="node24" class="node">
<title>var_67ca1f55</title>
<polygon fill="#d4edda" stroke="black" points="1405.25,-315.5 1132.75,-315.5 1132.75,-258 1405.25,-258 1405.25,-315.5"/>
<text xml:space="preserve" text-anchor="middle" x="1269" y="-298.2" font-family="Times,serif" font-size="14.00">SS_Couples_May_Marry</text>
<text xml:space="preserve" text-anchor="middle" x="1269" y="-281.7" font-family="Times,serif" font-size="14.00">(claim: Same&#45;sex couples have marriage right)</text>
<text xml:space="preserve" text-anchor="middle" x="1269" y="-265.2" font-family="Times,serif" font-size="14.00">= true</text>
</g>
<!-- 2e9a346b&#45;&gt;var_67ca1f55 -->
<g id="edge16" class="edge">
<title>2e9a346b&#45;&gt;var_67ca1f55</title>
<path fill="none" stroke="black" stroke-dasharray="1,5" d="M789.24,-803.27C904.64,-783.93 1107,-740.5 1107,-673.72 1107,-673.72 1107,-673.72 1107,-369.5 1107,-345.09 1121.85,-327.96 1142.55,-315.95"/>
</g>
<!-- 4814698b -->
<g id="node3" class="node">
<title>4814698b</title>
<polygon fill="#d4edda" stroke="green" points="625,-913.5 558.17,-895.5 625,-877.5 691.83,-895.5 625,-913.5"/>
<polygon fill="none" stroke="green" points="625,-917.65 542.79,-895.5 625,-873.36 707.21,-895.5 625,-917.65"/>
<text xml:space="preserve" text-anchor="middle" x="625" y="-890.45" font-family="Times,serif" font-size="14.00">IMPLIES</text>
</g>
<!-- 4814698b&#45;&gt;2e9a346b -->
<g id="edge6" class="edge">
<title>4814698b&#45;&gt;2e9a346b</title>
<path fill="none" stroke="black" d="M643.24,-878.04C654.97,-867.45 670.43,-853.49 683.62,-841.58"/>
<polygon fill="black" stroke="black" points="685.69,-844.42 690.77,-835.13 681,-839.23 685.69,-844.42"/>
</g>
<!-- 9744468f -->
<g id="node7" class="node">
<title>9744468f</title>
<ellipse fill="#d4edda" stroke="black" cx="588" cy="-815.86" rx="27" ry="18"/>
<text xml:space="preserve" text-anchor="middle" x="588" y="-810.06" font-family="Times,serif" font-size="14.00">ⓕ</text>
</g>
<!-- 4814698b&#45;&gt;9744468f -->
<g id="edge3" class="edge">
<title>4814698b&#45;&gt;9744468f</title>
<path fill="none" stroke="black" d="M615.85,-875.31C611.31,-865.78 605.75,-854.1 600.79,-843.7"/>
<polygon fill="black" stroke="black" points="604.03,-842.35 596.56,-834.83 597.71,-845.37 604.03,-842.35"/>
</g>
<!-- 5ac4e976 -->
<g id="node4" class="node">
<title>5ac4e976</title>
<polygon fill="#d4edda" stroke="black" points="781.88,-610.89 618.12,-610.89 618.12,-574.89 781.88,-574.89 781.88,-610.89"/>
<text xml:space="preserve" text-anchor="middle" x="700" y="-587.84" font-family="Times,serif" font-size="14.00">Exclusion_Burdens_Rights</text>
</g>
<!-- var_ab418381 -->
<g id="node28" class="node">
<title>var_ab418381</title>
<polygon fill="#d4edda" stroke="black" points="1078.62,-483 805.38,-483 805.38,-425.5 1078.62,-425.5 1078.62,-483"/>
<text xml:space="preserve" text-anchor="middle" x="942" y="-465.7" font-family="Times,serif" font-size="14.00">Exclusion_Burdens_Rights</text>
<text xml:space="preserve" text-anchor="middle" x="942" y="-449.2" font-family="Times,serif" font-size="14.00">(claim: Exclusion burdens liberty and equality)</text>
<text xml:space="preserve" text-anchor="middle" x="942" y="-432.7" font-family="Times,serif" font-size="14.00">= true</text>
</g>
<!-- 5ac4e976&#45;&gt;var_ab418381 -->
<g id="edge17" class="edge">
<title>5ac4e976&#45;&gt;var_ab418381</title>
<path fill="none" stroke="black" stroke-dasharray="1,5" d="M730.65,-574.59C771.35,-551.61 843.73,-510.74 892.3,-483.31"/>
</g>
<!-- var_d9520490 -->
<g id="node29" class="node">
<title>var_d9520490</title>
<polygon fill="#d4edda" stroke="black" points="659.75,-315.5 474.25,-315.5 474.25,-258 659.75,-258 659.75,-315.5"/>
<text xml:space="preserve" text-anchor="middle" x="567" y="-298.2" font-family="Times,serif" font-size="14.00">Reasons_Apply_Equally</text>
<text xml:space="preserve" text-anchor="middle" x="567" y="-281.7" font-family="Times,serif" font-size="14.00">(claim: Reasons apply equally)</text>
<text xml:space="preserve" text-anchor="middle" x="567" y="-265.2" font-family="Times,serif" font-size="14.00">= true</text>
</g>
<!-- 711407c3&#45;&gt;var_d9520490 -->
<g id="edge18" class="edge">
<title>711407c3&#45;&gt;var_d9520490</title>
<path fill="none" stroke="black" stroke-dasharray="1,5" d="M567,-352.16C567,-341.66 567,-328.02 567,-316"/>
</g>
<!-- 8197dfd2 -->
<g id="node6" class="node">
<title>8197dfd2</title>
<polygon fill="#d4edda" stroke="green" points="588,-690.72 544.33,-672.72 588,-654.72 631.67,-672.72 588,-690.72"/>
<polygon fill="none" stroke="green" points="588,-695.05 533.83,-672.72 588,-650.39 642.17,-672.72 588,-695.05"/>
<text xml:space="preserve" text-anchor="middle" x="588" y="-667.67" font-family="Times,serif" font-size="14.00">AND</text>
</g>
<!-- 8197dfd2&#45;&gt;5ac4e976 -->
<g id="edge7" class="edge">
<title>8197dfd2&#45;&gt;5ac4e976</title>
<path fill="none" stroke="black" d="M607.51,-658.16C623.49,-647.06 646.48,-631.08 665.55,-617.83"/>
<polygon fill="black" stroke="black" points="667.36,-620.83 673.58,-612.25 663.37,-615.08 667.36,-620.83"/>
</g>
<!-- bd5889da -->
<g id="node8" class="node">
<title>bd5889da</title>
<ellipse fill="#d4edda" stroke="black" cx="569" cy="-592.89" rx="27" ry="18"/>
<text xml:space="preserve" text-anchor="middle" x="569" y="-587.09" font-family="Times,serif" font-size="14.00">ⓕ</text>
</g>
<!-- 8197dfd2&#45;&gt;bd5889da -->
<g id="edge4" class="edge">
<title>8197dfd2&#45;&gt;bd5889da</title>
<path fill="none" stroke="black" d="M583.21,-652.08C580.99,-643.02 578.33,-632.09 575.9,-622.16"/>
<polygon fill="black" stroke="black" points="579.34,-621.5 573.57,-612.61 572.54,-623.16 579.34,-621.5"/>
</g>
<!-- 9744468f&#45;&gt;8197dfd2 -->
<g id="edge2" class="edge">
<title>9744468f&#45;&gt;8197dfd2</title>
<path fill="none" stroke="black" d="M588,-797.55C588,-775.01 588,-735.13 588,-706.72"/>
<polygon fill="black" stroke="black" points="591.5,-706.84 588,-696.84 584.5,-706.84 591.5,-706.84"/>
</g>
<!-- bd5889da&#45;&gt;1492ed96 -->
<g id="edge1" class="edge">
<title>bd5889da&#45;&gt;1492ed96</title>
<path fill="none" stroke="black" d="M568.75,-574.59C568.43,-552.94 567.88,-515.43 567.48,-488.23"/>
<polygon fill="black" stroke="black" points="570.99,-488.37 567.34,-478.43 563.99,-488.48 570.99,-488.37"/>
</g>
<!-- var_9e33915f -->
<g id="node27" class="node">
<title>var_9e33915f</title>
<polygon fill="#d4edda" stroke="black" points="415.12,-315.5 216.88,-315.5 216.88,-258 415.12,-258 415.12,-315.5"/>
<text xml:space="preserve" text-anchor="middle" x="316" y="-298.2" font-family="Times,serif" font-size="14.00">Marriage_Fundamental</text>
<text xml:space="preserve" text-anchor="middle" x="316" y="-281.7" font-family="Times,serif" font-size="14.00">(claim: Marriage is fundamental)</text>
<text xml:space="preserve" text-anchor="middle" x="316" y="-265.2" font-family="Times,serif" font-size="14.00">= true</text>
</g>
<!-- eae25b34&#45;&gt;var_9e33915f -->
<g id="edge19" class="edge">
<title>eae25b34&#45;&gt;var_9e33915f</title>
<path fill="none" stroke="black" stroke-dasharray="1,5" d="M366.43,-352.16C358.21,-341.66 347.53,-328.02 338.11,-316"/>
</g>
<!-- 55e04b2a_anchor -->
<!-- 01f553c9 -->
<g id="node11" class="node">
<title>01f553c9</title>
<ellipse fill="#f8d7da" stroke="black" cx="1861" cy="-592.89" rx="27" ry="18"/>
<text xml:space="preserve" text-anchor="middle" x="1861" y="-587.09" font-family="Times,serif" font-size="14.00">ⓕ</text>
</g>
<!-- 2fece549 -->
<g id="node12" class="node">
<title>2fece549</title>
<polygon fill="#f8d7da" stroke="green" points="1808,-472.25 1764.33,-454.25 1808,-436.25 1851.67,-454.25 1808,-472.25"/>
<polygon fill="none" stroke="green" points="1808,-476.58 1753.83,-454.25 1808,-431.92 1862.17,-454.25 1808,-476.58"/>
<text xml:space="preserve" text-anchor="middle" x="1808" y="-449.2" font-family="Times,serif" font-size="14.00">AND</text>
</g>
<!-- 01f553c9&#45;&gt;2fece549 -->
<g id="edge10" class="edge">
<title>01f553c9&#45;&gt;2fece549</title>
<path fill="none" stroke="black" d="M1854.5,-575.14C1845.76,-552.59 1830.06,-512.12 1819.34,-484.5"/>
<polygon fill="black" stroke="black" points="1822.66,-483.36 1815.78,-475.3 1816.13,-485.89 1822.66,-483.36"/>
</g>
<!-- 35d1774b -->
<g id="node13" class="node">
<title>35d1774b</title>
<polygon fill="#f8d7da" stroke="black" points="1896.62,-388.5 1719.38,-388.5 1719.38,-352.5 1896.62,-352.5 1896.62,-388.5"/>
<text xml:space="preserve" text-anchor="middle" x="1808" y="-365.45" font-family="Times,serif" font-size="14.00">No_Basis_Deny_Recognition</text>
</g>
<!-- 2fece549&#45;&gt;35d1774b -->
<g id="edge12" class="edge">
<title>2fece549&#45;&gt;35d1774b</title>
<path fill="none" stroke="black" d="M1808,-431.77C1808,-422.18 1808,-410.74 1808,-400.41"/>
<polygon fill="black" stroke="black" points="1811.5,-400.5 1808,-390.5 1804.5,-400.5 1811.5,-400.5"/>
</g>
<!-- 6a458c37 -->
<g id="node15" class="node">
<title>6a458c37</title>
<polygon fill="#d4edda" stroke="black" points="1701.75,-388.5 1546.25,-388.5 1546.25,-352.5 1701.75,-352.5 1701.75,-388.5"/>
<text xml:space="preserve" text-anchor="middle" x="1624" y="-365.45" font-family="Times,serif" font-size="14.00">SS_Couples_May_Marry</text>
</g>
<!-- 2fece549&#45;&gt;6a458c37 -->
<g id="edge11" class="edge">
<title>2fece549&#45;&gt;6a458c37</title>
<path fill="none" stroke="black" d="M1782.8,-442.05C1754.76,-429.6 1708.76,-409.16 1673.47,-393.48"/>
<polygon fill="black" stroke="black" points="1675.3,-390.46 1664.74,-389.6 1672.46,-396.86 1675.3,-390.46"/>
</g>
<!-- var_ebc3249b -->
<g id="node30" class="node">
<title>var_ebc3249b</title>
<polygon fill="#f8d7da" stroke="black" points="1822.88,-315.5 1593.12,-315.5 1593.12,-258 1822.88,-258 1822.88,-315.5"/>
<text xml:space="preserve" text-anchor="middle" x="1708" y="-298.2" font-family="Times,serif" font-size="14.00">No_Basis_Deny_Recognition</text>
<text xml:space="preserve" text-anchor="middle" x="1708" y="-281.7" font-family="Times,serif" font-size="14.00">(claim: Recognition lacks lawful basis)</text>
<text xml:space="preserve" text-anchor="middle" x="1708" y="-265.2" font-family="Times,serif" font-size="14.00">= false</text>
</g>
<!-- 35d1774b&#45;&gt;var_ebc3249b -->
<g id="edge20" class="edge">
<title>35d1774b&#45;&gt;var_ebc3249b</title>
<path fill="none" stroke="black" stroke-dasharray="1,5" d="M1786.79,-352.16C1773.95,-341.66 1757.26,-328.02 1742.55,-316"/>
</g>
<!-- 4c2a15fe -->
<g id="node14" class="node">
<title>4c2a15fe</title>
<polygon fill="#d4edda" stroke="green" points="1927,-690.72 1860.17,-672.72 1927,-654.72 1993.83,-672.72 1927,-690.72"/>
<polygon fill="none" stroke="green" points="1927,-694.86 1844.79,-672.72 1927,-650.58 2009.21,-672.72 1927,-694.86"/>
<text xml:space="preserve" text-anchor="middle" x="1927" y="-667.67" font-family="Times,serif" font-size="14.00">IMPLIES</text>
</g>
<!-- 4c2a15fe&#45;&gt;01f553c9 -->
<g id="edge9" class="edge">
<title>4c2a15fe&#45;&gt;01f553c9</title>
<path fill="none" stroke="black" d="M1912.35,-654.45C1903.15,-643.6 1891.16,-629.46 1881.08,-617.57"/>
<polygon fill="black" stroke="black" points="1883.94,-615.53 1874.8,-610.17 1878.6,-620.06 1883.94,-615.53"/>
</g>
<!-- b28fad68 -->
<g id="node16" class="node">
<title>b28fad68</title>
<polygon fill="#e2e3e5" stroke="black" points="2172,-610.89 1976,-610.89 1976,-574.89 2172,-574.89 2172,-610.89"/>
<text xml:space="preserve" text-anchor="middle" x="2074" y="-587.84" font-family="Times,serif" font-size="14.00">States_Must_License_Recognize</text>
</g>
<!-- 4c2a15fe&#45;&gt;b28fad68 -->
<g id="edge13" class="edge">
<title>4c2a15fe&#45;&gt;b28fad68</title>
<path fill="none" stroke="black" d="M1953.96,-657.44C1975.53,-646.03 2006.17,-629.81 2031.09,-616.61"/>
<polygon fill="black" stroke="black" points="2032.5,-619.83 2039.7,-612.05 2029.22,-613.64 2032.5,-619.83"/>
</g>
<!-- 6a458c37&#45;&gt;var_67ca1f55 -->
<g id="edge21" class="edge">
<title>6a458c37&#45;&gt;var_67ca1f55</title>
<path fill="none" stroke="black" stroke-dasharray="1,5" d="M1563.13,-352.06C1553.41,-349.43 1543.45,-346.82 1534,-344.5 1492.42,-334.28 1446.92,-324.16 1405.53,-315.35"/>
</g>
<!-- var_9138c85e -->
<g id="node26" class="node">
<title>var_9138c85e</title>
<polygon fill="#e2e3e5" stroke="black" points="2453.5,-483 2206.5,-483 2206.5,-425.5 2453.5,-425.5 2453.5,-483"/>
<text xml:space="preserve" text-anchor="middle" x="2330" y="-465.7" font-family="Times,serif" font-size="14.00">States_Must_License_Recognize</text>
<text xml:space="preserve" text-anchor="middle" x="2330" y="-449.2" font-family="Times,serif" font-size="14.00">(claim: States must license and recognize)</text>
<text xml:space="preserve" text-anchor="middle" x="2330" y="-432.7" font-family="Times,serif" font-size="14.00">= unknown</text>
</g>
<!-- b28fad68&#45;&gt;var_9138c85e -->
<g id="edge22" class="edge">
<title>b28fad68&#45;&gt;var_9138c85e</title>
<path fill="none" stroke="black" stroke-dasharray="1,5" d="M2111.91,-574.47C2137.59,-562.44 2172.14,-545.8 2202,-529.89 2229.47,-515.26 2259.57,-497.78 2283.67,-483.42"/>
</g>
<!-- 5c5a9c0d_anchor -->
<!-- 0dd0baa8 -->
<g id="node18" class="node">
<title>0dd0baa8</title>
<polygon fill="#f8d7da" stroke="black" points="1521.62,-388.5 1344.38,-388.5 1344.38,-352.5 1521.62,-352.5 1521.62,-388.5"/>
<text xml:space="preserve" text-anchor="middle" x="1433" y="-365.45" font-family="Times,serif" font-size="14.00">No_Basis_Deny_Recognition</text>
</g>
<!-- 0dd0baa8&#45;&gt;var_ebc3249b -->
<g id="edge23" class="edge">
<title>0dd0baa8&#45;&gt;var_ebc3249b</title>
<path fill="none" stroke="black" stroke-dasharray="1,5" d="M1491.66,-352.06C1526.99,-341.56 1572.82,-327.94 1613.19,-315.93"/>
</g>
<!-- 657c46af -->
<g id="node19" class="node">
<title>657c46af</title>
<polygon fill="#d4edda" stroke="black" points="1326.75,-388.5 1171.25,-388.5 1171.25,-352.5 1326.75,-352.5 1326.75,-388.5"/>
<text xml:space="preserve" text-anchor="middle" x="1249" y="-365.45" font-family="Times,serif" font-size="14.00">SS_Couples_May_Marry</text>
</g>
<!-- 657c46af&#45;&gt;var_67ca1f55 -->
<g id="edge24" class="edge">
<title>657c46af&#45;&gt;var_67ca1f55</title>
<path fill="none" stroke="black" stroke-dasharray="1,5" d="M1253.24,-352.16C1255.81,-341.66 1259.15,-328.02 1262.09,-316"/>
</g>
<!-- 720e4235 -->
<g id="node20" class="node">
<title>720e4235</title>
<polygon fill="#f8d7da" stroke="red" points="1297,-472.25 1230.17,-454.25 1297,-436.25 1363.83,-454.25 1297,-472.25"/>
<polygon fill="none" stroke="red" points="1297,-476.39 1214.79,-454.25 1297,-432.11 1379.21,-454.25 1297,-476.39"/>
<text xml:space="preserve" text-anchor="middle" x="1297" y="-449.2" font-family="Times,serif" font-size="14.00">IMPLIES</text>
</g>
<!-- 720e4235&#45;&gt;0dd0baa8 -->
<g id="edge15" class="edge">
<title>720e4235&#45;&gt;0dd0baa8</title>
<path fill="none" stroke="black" d="M1321.63,-438.45C1341.99,-426.21 1371.25,-408.62 1394.68,-394.54"/>
<polygon fill="black" stroke="black" points="1396.25,-397.67 1403.02,-389.52 1392.64,-391.68 1396.25,-397.67"/>
</g>
<!-- 720e4235&#45;&gt;657c46af -->
<g id="edge14" class="edge">
<title>720e4235&#45;&gt;657c46af</title>
<path fill="none" stroke="black" d="M1286.11,-434.7C1279.86,-424.06 1271.91,-410.51 1264.96,-398.69"/>
<polygon fill="black" stroke="black" points="1268.04,-397.02 1259.96,-390.16 1262,-400.56 1268.04,-397.02"/>
</g>
<!-- b2df5124_anchor -->
<!-- var_21c0740d -->
<g id="node22" class="node">
<title>var_21c0740d</title>
<polygon fill="lightblue" stroke="black" points="2221.38,-836.36 2114.62,-836.36 2114.62,-795.36 2221.38,-795.36 2221.38,-836.36"/>
<text xml:space="preserve" text-anchor="middle" x="2168" y="-819.06" font-family="Times,serif" font-size="14.00">P2</text>
<text xml:space="preserve" text-anchor="middle" x="2168" y="-802.56" font-family="Times,serif" font-size="14.00">(premise&#45;bound)</text>
</g>
<!-- var_21c0740d&#45;&gt;5c5a9c0d_anchor -->
<g id="edge25" class="edge">
<title>var_21c0740d&#45;&gt;5c5a9c0d_anchor</title>
<path fill="none" stroke="blue" stroke-width="2" d="M2168,-794.94C2168,-786.33 2168,-775.58 2168,-764.08"/>
<polygon fill="blue" stroke="blue" stroke-width="2" points="2171.5,-765.89 2168,-755.89 2164.5,-765.89 2171.5,-765.89"/>
<text xml:space="preserve" text-anchor="middle" x="2175.12" y="-764.06" font-family="Times,serif" font-size="14.00">P2</text>
</g>
<!-- var_65be93c1 -->
<g id="node23" class="node">
<title>var_65be93c1</title>
<polygon fill="lightblue" stroke="black" points="1514.38,-613.39 1407.62,-613.39 1407.62,-572.39 1514.38,-572.39 1514.38,-613.39"/>
<text xml:space="preserve" text-anchor="middle" x="1461" y="-596.09" font-family="Times,serif" font-size="14.00">P1</text>
<text xml:space="preserve" text-anchor="middle" x="1461" y="-579.59" font-family="Times,serif" font-size="14.00">(premise&#45;bound)</text>
</g>
<!-- var_65be93c1&#45;&gt;b2df5124_anchor -->
<g id="edge26" class="edge">
<title>var_65be93c1&#45;&gt;b2df5124_anchor</title>
<path fill="none" stroke="blue" stroke-width="2" d="M1461,-572.02C1461,-563.37 1461,-552.58 1461,-541.08"/>
<polygon fill="blue" stroke="blue" stroke-width="2" points="1464.5,-542.92 1461,-532.92 1457.5,-542.92 1464.5,-542.92"/>
<text xml:space="preserve" text-anchor="middle" x="1468.12" y="-541.09" font-family="Times,serif" font-size="14.00">P1</text>
</g>
<!-- claim_67ca1f55 -->
<g id="node31" class="node">
<title>claim_67ca1f55</title>
<polygon fill="lightyellow" stroke="none" points="1146.75,-44.75 1146.75,-148.75 1507.25,-148.75 1507.25,-44.75 1146.75,-44.75"/>
<text xml:space="preserve" text-anchor="start" x="1253.12" y="-129.45" font-family="Times,serif" font-weight="bold" font-size="14.00">SS_Couples_May_Marry</text>
<text xml:space="preserve" text-anchor="start" x="1222.38" y="-100.95" font-family="Times,serif" font-style="italic" font-size="14.00">Same&#45;sex couples have marriage right</text>
<text xml:space="preserve" text-anchor="start" x="1153.75" y="-72" font-family="Times,serif" font-size="14.00">Same&#45;sex couples may exercise the fundamental right to marry</text>
<text xml:space="preserve" text-anchor="start" x="1153.75" y="-55.5" font-family="Times,serif" font-size="14.00">under the Fourteenth Amendment.</text>
<polygon fill="none" stroke="black" points="1146.75,-44.75 1146.75,-148.75 1507.25,-148.75 1507.25,-44.75 1146.75,-44.75"/>
</g>
<!-- var_67ca1f55&#45;&gt;claim_67ca1f55 -->
<!-- var_773f95c3 -->
<g id="node25" class="node">
<title>var_773f95c3</title>
<polygon fill="lightblue" stroke="black" points="829.38,-1059.15 722.62,-1059.15 722.62,-1018.15 829.38,-1018.15 829.38,-1059.15"/>
<text xml:space="preserve" text-anchor="middle" x="776" y="-1041.85" font-family="Times,serif" font-size="14.00">P0</text>
<text xml:space="preserve" text-anchor="middle" x="776" y="-1025.35" font-family="Times,serif" font-size="14.00">(premise&#45;bound)</text>
</g>
<!-- var_773f95c3&#45;&gt;55e04b2a_anchor -->
<g id="edge27" class="edge">
<title>var_773f95c3&#45;&gt;55e04b2a_anchor</title>
<path fill="none" stroke="blue" stroke-width="2" d="M776,-1017.72C776,-1009.11 776,-998.37 776,-986.86"/>
<polygon fill="blue" stroke="blue" stroke-width="2" points="779.5,-988.67 776,-978.67 772.5,-988.67 779.5,-988.67"/>
<text xml:space="preserve" text-anchor="middle" x="783.12" y="-986.85" font-family="Times,serif" font-size="14.00">P0</text>
</g>
<!-- claim_9138c85e -->
<g id="node32" class="node">
<title>claim_9138c85e</title>
<polygon fill="lightyellow" stroke="none" points="1909,-36.5 1909,-157 2265,-157 2265,-36.5 1909,-36.5"/>
<text xml:space="preserve" text-anchor="start" x="1993.25" y="-137.7" font-family="Times,serif" font-weight="bold" font-size="14.00">States_Must_License_Recognize</text>
<text xml:space="preserve" text-anchor="start" x="1995.5" y="-109.2" font-family="Times,serif" font-style="italic" font-size="14.00">States must license and recognize</text>
<text xml:space="preserve" text-anchor="start" x="1916" y="-80.25" font-family="Times,serif" font-size="14.00">States must license marriages between two people of the same</text>
<text xml:space="preserve" text-anchor="start" x="1916" y="-63.75" font-family="Times,serif" font-size="14.00">sex and must recognize lawful same&#45;sex marriages performed</text>
<text xml:space="preserve" text-anchor="start" x="1916" y="-47.25" font-family="Times,serif" font-size="14.00">in another State.</text>
<polygon fill="none" stroke="black" points="1909,-36.5 1909,-157 2265,-157 2265,-36.5 1909,-36.5"/>
</g>
<!-- var_9138c85e&#45;&gt;claim_9138c85e -->
<!-- claim_9e33915f -->
<g id="node33" class="node">
<title>claim_9e33915f</title>
<polygon fill="lightyellow" stroke="none" points="27.75,-44.75 27.75,-148.75 358.25,-148.75 358.25,-44.75 27.75,-44.75"/>
<text xml:space="preserve" text-anchor="start" x="122.88" y="-129.45" font-family="Times,serif" font-weight="bold" font-size="14.00">Marriage_Fundamental</text>
<text xml:space="preserve" text-anchor="start" x="124.75" y="-100.95" font-family="Times,serif" font-style="italic" font-size="14.00">Marriage is fundamental</text>
<text xml:space="preserve" text-anchor="start" x="34.75" y="-72" font-family="Times,serif" font-size="14.00">The right to marry is a fundamental right protected by the</text>
<text xml:space="preserve" text-anchor="start" x="34.75" y="-55.5" font-family="Times,serif" font-size="14.00">Constitution under the Fourteenth Amendment.</text>
<polygon fill="none" stroke="black" points="27.75,-44.75 27.75,-148.75 358.25,-148.75 358.25,-44.75 27.75,-44.75"/>
</g>
<!-- var_9e33915f&#45;&gt;claim_9e33915f -->
<!-- claim_ab418381 -->
<g id="node34" class="node">
<title>claim_ab418381</title>
<polygon fill="lightyellow" stroke="none" points="775.38,-36.5 775.38,-157 1112.62,-157 1112.62,-36.5 775.38,-36.5"/>
<text xml:space="preserve" text-anchor="start" x="866" y="-137.7" font-family="Times,serif" font-weight="bold" font-size="14.00">Exclusion_Burdens_Rights</text>
<text xml:space="preserve" text-anchor="start" x="838.62" y="-109.2" font-family="Times,serif" font-style="italic" font-size="14.00">Exclusion burdens liberty and equality</text>
<text xml:space="preserve" text-anchor="start" x="782.38" y="-80.25" font-family="Times,serif" font-size="14.00">State laws excluding same&#45;sex couples from civil marriage</text>
<text xml:space="preserve" text-anchor="start" x="782.38" y="-63.75" font-family="Times,serif" font-size="14.00">burden their liberty and abridge central precepts of</text>
<text xml:space="preserve" text-anchor="start" x="782.38" y="-47.25" font-family="Times,serif" font-size="14.00">equality.</text>
<polygon fill="none" stroke="black" points="775.38,-36.5 775.38,-157 1112.62,-157 1112.62,-36.5 775.38,-36.5"/>
</g>
<!-- var_ab418381&#45;&gt;claim_ab418381 -->
<!-- claim_d9520490 -->
<g id="node35" class="node">
<title>claim_d9520490</title>
<polygon fill="lightyellow" stroke="none" points="392.75,-44.75 392.75,-148.75 741.25,-148.75 741.25,-44.75 392.75,-44.75"/>
<text xml:space="preserve" text-anchor="start" x="496.5" y="-129.45" font-family="Times,serif" font-weight="bold" font-size="14.00">Reasons_Apply_Equally</text>
<text xml:space="preserve" text-anchor="start" x="505.88" y="-100.95" font-family="Times,serif" font-style="italic" font-size="14.00">Reasons apply equally</text>
<text xml:space="preserve" text-anchor="start" x="399.75" y="-72" font-family="Times,serif" font-size="14.00">The constitutional reasons that make marriage a fundamental</text>
<text xml:space="preserve" text-anchor="start" x="399.75" y="-55.5" font-family="Times,serif" font-size="14.00">right apply with equal force to same&#45;sex couples.</text>
<polygon fill="none" stroke="black" points="392.75,-44.75 392.75,-148.75 741.25,-148.75 741.25,-44.75 392.75,-44.75"/>
</g>
<!-- var_d9520490&#45;&gt;claim_d9520490 -->
<!-- claim_ebc3249b -->
<g id="node36" class="node">
<title>claim_ebc3249b</title>
<polygon fill="lightyellow" stroke="none" points="1540.88,-20 1540.88,-173.5 1875.12,-173.5 1875.12,-20 1540.88,-20"/>
<text xml:space="preserve" text-anchor="start" x="1625.12" y="-154.2" font-family="Times,serif" font-weight="bold" font-size="14.00">No_Basis_Deny_Recognition</text>
<text xml:space="preserve" text-anchor="start" x="1625.12" y="-125.7" font-family="Times,serif" font-style="italic" font-size="14.00">Recognition lacks lawful basis</text>
<text xml:space="preserve" text-anchor="start" x="1547.88" y="-96.75" font-family="Times,serif" font-size="14.00">If same&#45;sex couples may exercise the fundamental right to</text>
<text xml:space="preserve" text-anchor="start" x="1547.88" y="-80.25" font-family="Times,serif" font-size="14.00">marry in all States, then no lawful basis exists for a State</text>
<text xml:space="preserve" text-anchor="start" x="1547.88" y="-63.75" font-family="Times,serif" font-size="14.00">to refuse recognition to a lawful same&#45;sex marriage</text>
<text xml:space="preserve" text-anchor="start" x="1547.88" y="-47.25" font-family="Times,serif" font-size="14.00">performed in another State because of its same&#45;sex</text>
<text xml:space="preserve" text-anchor="start" x="1547.88" y="-30.75" font-family="Times,serif" font-size="14.00">character.</text>
<polygon fill="none" stroke="black" points="1540.88,-20 1540.88,-173.5 1875.12,-173.5 1875.12,-20 1540.88,-20"/>
</g>
<!-- var_ebc3249b&#45;&gt;claim_ebc3249b -->
</g>
</svg>
