<?xml version="1.0" encoding="UTF-8" standalone="no"?>
<!DOCTYPE svg PUBLIC "-//W3C//DTD SVG 1.1//EN"
 "http://www.w3.org/Graphics/SVG/1.1/DTD/svg11.dtd">
<!-- Generated by graphviz version 14.1.3 (20260303.0454)
 -->
<!-- Title: argument Pages: 1 -->
<svg width="2582pt" height="1030pt"
 viewBox="0.00 0.00 2582.00 1030.00" xmlns="http://www.w3.org/2000/svg" xmlns:xlink="http://www.w3.org/1999/xlink">
<g id="graph0" class="graph" transform="scale(1 1) rotate(0) translate(4 1025.5)">
<title>argument</title>
<polygon fill="white" stroke="none" points="-4,4 -4,-1025.5 2577.5,-1025.5 2577.5,4 -4,4"/>
<text xml:space="preserve" text-anchor="middle" x="1286.75" y="-1002.3" font-family="Times,serif" font-size="16.00">Obergefell majority constitutional holding</text>
<g id="clust1" class="cluster">
<title>cluster_55e04b2a</title>
<polygon fill="none" stroke="#666666" stroke-dasharray="5,2" points="8,-309.25 8,-911.25 797,-911.25 797,-309.25 8,-309.25"/>
<text xml:space="preserve" text-anchor="middle" x="402.5" y="-892.05" font-family="Times,serif" font-size="16.00">Fundamental&#45;right reasoning extends to same&#45;sex co</text>
<text xml:space="preserve" text-anchor="middle" x="402.5" y="-873.3" font-family="Times,serif" font-size="16.00">(((((Marriage_Fundamental ∧ Reasons_Apply_Equally)) ∧ Exclusion_Burdens_Rights)) → SS_Couples_May_Marry)</text>
</g>
<g id="clust2" class="cluster">
<title>cluster_5c5a9c0d</title>
<polygon fill="none" stroke="red" stroke-width="2" points="1538,-309.25 1538,-696.75 2318,-696.75 2318,-309.25 1538,-309.25"/>
<text xml:space="preserve" text-anchor="middle" x="1928" y="-677.55" font-family="Times,serif" font-size="16.00">States must license and recognize same&#45;sex marriag</text>
<text xml:space="preserve" text-anchor="middle" x="1928" y="-658.8" font-family="Times,serif" font-size="16.00">(((SS_Couples_May_Marry ∧ No_Basis_Deny_Recognition)) → States_Must_License_Recognize) &#160;[CONCLUSION]</text>
</g>
<g id="clust3" class="cluster">
<title>cluster_b2df5124</title>
<polygon fill="none" stroke="#666666" stroke-dasharray="5,2" points="1125,-309.25 1125,-482.25 1530,-482.25 1530,-309.25 1125,-309.25"/>
<text xml:space="preserve" text-anchor="middle" x="1327.5" y="-463.05" font-family="Times,serif" font-size="16.00">Marriage right defeats recognition bans</text>
<text xml:space="preserve" text-anchor="middle" x="1327.5" y="-444.3" font-family="Times,serif" font-size="16.00">(SS_Couples_May_Marry → No_Basis_Deny_Recognition)</text>
</g>
<g id="clust4" class="cluster">
<title>cluster_claims</title>
</g>
<!-- 1492ed96 -->
<g id="node1" class="node">
<title>1492ed96</title>
<polygon fill="none" stroke="black" points="567,-428.75 523.33,-410.75 567,-392.75 610.67,-410.75 567,-428.75"/>
<text xml:space="preserve" text-anchor="middle" x="567" y="-405.7" font-family="Times,serif" font-size="14.00">AND</text>
</g>
<!-- 711407c3 -->
<g id="node5" class="node">
<title>711407c3</title>
<polygon fill="none" stroke="black" points="642.12,-353.25 491.88,-353.25 491.88,-317.25 642.12,-317.25 642.12,-353.25"/>
<text xml:space="preserve" text-anchor="middle" x="567" y="-330.2" font-family="Times,serif" font-size="14.00">Reasons_Apply_Equally</text>
</g>
<!-- 1492ed96&#45;&gt;711407c3 -->
<g id="edge8" class="edge">
<title>1492ed96&#45;&gt;711407c3</title>
<path fill="none" stroke="black" d="M567,-392.33C567,-384.18 567,-374.27 567,-365.05"/>
<polygon fill="black" stroke="black" points="570.5,-365.06 567,-355.06 563.5,-365.06 570.5,-365.06"/>
</g>
<!-- eae25b34 -->
<g id="node9" class="node">
<title>eae25b34</title>
<polygon fill="none" stroke="black" points="452.12,-353.25 307.88,-353.25 307.88,-317.25 452.12,-317.25 452.12,-353.25"/>
<text xml:space="preserve" text-anchor="middle" x="380" y="-330.2" font-family="Times,serif" font-size="14.00">Marriage_Fundamental</text>
</g>
<!-- 1492ed96&#45;&gt;eae25b34 -->
<g id="edge5" class="edge">
<title>1492ed96&#45;&gt;eae25b34</title>
<path fill="none" stroke="black" d="M545.55,-401.32C518.74,-390.78 471.89,-372.37 434.85,-357.81"/>
<polygon fill="black" stroke="black" points="436.2,-354.58 425.61,-354.18 433.64,-361.09 436.2,-354.58"/>
</g>
<!-- 2e9a346b -->
<g id="node2" class="node">
<title>2e9a346b</title>
<polygon fill="none" stroke="black" points="788.75,-777.75 633.25,-777.75 633.25,-741.75 788.75,-741.75 788.75,-777.75"/>
<text xml:space="preserve" text-anchor="middle" x="711" y="-754.7" font-family="Times,serif" font-size="14.00">SS_Couples_May_Marry</text>
</g>
<!-- var_67ca1f55 -->
<g id="node24" class="node">
<title>var_67ca1f55</title>
<polygon fill="lightyellow" stroke="black" points="1434.25,-280.25 1161.75,-280.25 1161.75,-239.25 1434.25,-239.25 1434.25,-280.25"/>
<text xml:space="preserve" text-anchor="middle" x="1298" y="-262.95" font-family="Times,serif" font-size="14.00">SS_Couples_May_Marry</text>
<text xml:space="preserve" text-anchor="middle" x="1298" y="-246.45" font-family="Times,serif" font-size="14.00">(claim: Same&#45;sex couples have marriage right)</text>
</g>
<!-- 2e9a346b&#45;&gt;var_67ca1f55 -->
<g id="edge16" class="edge">
<title>2e9a346b&#45;&gt;var_67ca1f55</title>
<path fill="none" stroke="black" stroke-dasharray="1,5" d="M789.24,-747.92C904.64,-729.72 1107,-688.31 1107,-621.75 1107,-621.75 1107,-621.75 1107,-334.25 1107,-321.52 1110.97,-317.1 1121,-309.25 1136.94,-296.78 1155.86,-287.52 1175.3,-280.63"/>
</g>
<!-- 4814698b -->
<g id="node3" class="node">
<title>4814698b</title>
<polygon fill="none" stroke="black" points="631,-853.25 564.17,-835.25 631,-817.25 697.83,-835.25 631,-853.25"/>
<text xml:space="preserve" text-anchor="middle" x="631" y="-830.2" font-family="Times,serif" font-size="14.00">IMPLIES</text>
</g>
<!-- 4814698b&#45;&gt;2e9a346b -->
<g id="edge6" class="edge">
<title>4814698b&#45;&gt;2e9a346b</title>
<path fill="none" stroke="black" d="M645.67,-820.77C656.3,-811 670.98,-797.52 683.74,-785.8"/>
<polygon fill="black" stroke="black" points="686.07,-788.4 691.07,-779.06 681.34,-783.25 686.07,-788.4"/>
</g>
<!-- 9744468f -->
<g id="node7" class="node">
<title>9744468f</title>
<ellipse fill="none" stroke="black" cx="588" cy="-759.75" rx="27" ry="18"/>
<text xml:space="preserve" text-anchor="middle" x="588" y="-753.95" font-family="Times,serif" font-size="14.00">ⓕ</text>
</g>
<!-- 4814698b&#45;&gt;9744468f -->
<g id="edge3" class="edge">
<title>4814698b&#45;&gt;9744468f</title>
<path fill="none" stroke="black" d="M622.3,-819.38C616.83,-810.03 609.63,-797.72 603.23,-786.79"/>
<polygon fill="black" stroke="black" points="606.27,-785.05 598.2,-778.18 600.23,-788.58 606.27,-785.05"/>
</g>
<!-- 5ac4e976 -->
<g id="node4" class="node">
<title>5ac4e976</title>
<polygon fill="none" stroke="black" points="786.88,-563.25 623.12,-563.25 623.12,-527.25 786.88,-527.25 786.88,-563.25"/>
<text xml:space="preserve" text-anchor="middle" x="705" y="-540.2" font-family="Times,serif" font-size="14.00">Exclusion_Burdens_Rights</text>
</g>
<!-- var_ab418381 -->
<g id="node28" class="node">
<title>var_ab418381</title>
<polygon fill="lightyellow" stroke="black" points="1078.62,-431.25 805.38,-431.25 805.38,-390.25 1078.62,-390.25 1078.62,-431.25"/>
<text xml:space="preserve" text-anchor="middle" x="942" y="-413.95" font-family="Times,serif" font-size="14.00">Exclusion_Burdens_Rights</text>
<text xml:space="preserve" text-anchor="middle" x="942" y="-397.45" font-family="Times,serif" font-size="14.00">(claim: Exclusion burdens liberty and equality)</text>
</g>
<!-- 5ac4e976&#45;&gt;var_ab418381 -->
<g id="edge17" class="edge">
<title>5ac4e976&#45;&gt;var_ab418381</title>
<path fill="none" stroke="black" stroke-dasharray="1,5" d="M735.98,-526.93C779.9,-502.38 860.05,-457.57 906.37,-431.67"/>
</g>
<!-- var_d9520490 -->
<g id="node29" class="node">
<title>var_d9520490</title>
<polygon fill="lightyellow" stroke="black" points="659.75,-280.25 474.25,-280.25 474.25,-239.25 659.75,-239.25 659.75,-280.25"/>
<text xml:space="preserve" text-anchor="middle" x="567" y="-262.95" font-family="Times,serif" font-size="14.00">Reasons_Apply_Equally</text>
<text xml:space="preserve" text-anchor="middle" x="567" y="-246.45" font-family="Times,serif" font-size="14.00">(claim: Reasons apply equally)</text>
</g>
<!-- 711407c3&#45;&gt;var_d9520490 -->
<g id="edge18" class="edge">
<title>711407c3&#45;&gt;var_d9520490</title>
<path fill="none" stroke="black" stroke-dasharray="1,5" d="M567,-316.83C567,-305.96 567,-291.94 567,-280.64"/>
</g>
<!-- 8197dfd2 -->
<g id="node6" class="node">
<title>8197dfd2</title>
<polygon fill="none" stroke="black" points="588,-638.75 544.33,-620.75 588,-602.75 631.67,-620.75 588,-638.75"/>
<text xml:space="preserve" text-anchor="middle" x="588" y="-615.7" font-family="Times,serif" font-size="14.00">AND</text>
</g>
<!-- 8197dfd2&#45;&gt;5ac4e976 -->
<g id="edge7" class="edge">
<title>8197dfd2&#45;&gt;5ac4e976</title>
<path fill="none" stroke="black" d="M604.76,-609.22C621.13,-598.94 646.58,-582.95 667.75,-569.65"/>
<polygon fill="black" stroke="black" points="669.54,-572.66 676.14,-564.38 665.81,-566.73 669.54,-572.66"/>
</g>
<!-- bd5889da -->
<g id="node8" class="node">
<title>bd5889da</title>
<ellipse fill="none" stroke="black" cx="571" cy="-545.25" rx="27" ry="18"/>
<text xml:space="preserve" text-anchor="middle" x="571" y="-539.45" font-family="Times,serif" font-size="14.00">ⓕ</text>
</g>
<!-- 8197dfd2&#45;&gt;bd5889da -->
<g id="edge4" class="edge">
<title>8197dfd2&#45;&gt;bd5889da</title>
<path fill="none" stroke="black" d="M584.31,-603.8C582.33,-595.24 579.83,-584.44 577.54,-574.52"/>
<polygon fill="black" stroke="black" points="580.98,-573.88 575.32,-564.92 574.16,-575.46 580.98,-573.88"/>
</g>
<!-- 9744468f&#45;&gt;8197dfd2 -->
<g id="edge2" class="edge">
<title>9744468f&#45;&gt;8197dfd2</title>
<path fill="none" stroke="black" d="M588,-741.4C588,-718.44 588,-677.68 588,-650.19"/>
<polygon fill="black" stroke="black" points="591.5,-650.47 588,-640.47 584.5,-650.47 591.5,-650.47"/>
</g>
<!-- bd5889da&#45;&gt;1492ed96 -->
<g id="edge1" class="edge">
<title>bd5889da&#45;&gt;1492ed96</title>
<path fill="none" stroke="black" d="M570.48,-526.93C569.81,-504.89 568.65,-466.51 567.86,-440.16"/>
<polygon fill="black" stroke="black" points="571.36,-440.06 567.56,-430.17 564.36,-440.27 571.36,-440.06"/>
</g>
<!-- var_9e33915f -->
<g id="node27" class="node">
<title>var_9e33915f</title>
<polygon fill="lightyellow" stroke="black" points="415.12,-280.25 216.88,-280.25 216.88,-239.25 415.12,-239.25 415.12,-280.25"/>
<text xml:space="preserve" text-anchor="middle" x="316" y="-262.95" font-family="Times,serif" font-size="14.00">Marriage_Fundamental</text>
<text xml:space="preserve" text-anchor="middle" x="316" y="-246.45" font-family="Times,serif" font-size="14.00">(claim: Marriage is fundamental)</text>
</g>
<!-- eae25b34&#45;&gt;var_9e33915f -->
<g id="edge19" class="edge">
<title>eae25b34&#45;&gt;var_9e33915f</title>
<path fill="none" stroke="black" stroke-dasharray="1,5" d="M364.83,-316.83C355.37,-305.96 343.16,-291.94 333.32,-280.64"/>
</g>
<!-- 55e04b2a_anchor -->
<!-- 01f553c9 -->
<g id="node11" class="node">
<title>01f553c9</title>
<ellipse fill="none" stroke="black" cx="1906" cy="-545.25" rx="27" ry="18"/>
<text xml:space="preserve" text-anchor="middle" x="1906" y="-539.45" font-family="Times,serif" font-size="14.00">ⓕ</text>
</g>
<!-- 2fece549 -->
<g id="node12" class="node">
<title>2fece549</title>
<polygon fill="none" stroke="black" points="1808,-428.75 1764.33,-410.75 1808,-392.75 1851.67,-410.75 1808,-428.75"/>
<text xml:space="preserve" text-anchor="middle" x="1808" y="-405.7" font-family="Times,serif" font-size="14.00">AND</text>
</g>
<!-- 01f553c9&#45;&gt;2fece549 -->
<g id="edge10" class="edge">
<title>01f553c9&#45;&gt;2fece549</title>
<path fill="none" stroke="black" d="M1894.37,-528.53C1877.03,-505.09 1844.32,-460.86 1824.51,-434.07"/>
<polygon fill="black" stroke="black" points="1827.51,-432.24 1818.75,-426.28 1821.88,-436.4 1827.51,-432.24"/>
</g>
<!-- 35d1774b -->
<g id="node13" class="node">
<title>35d1774b</title>
<polygon fill="none" stroke="black" points="1896.62,-353.25 1719.38,-353.25 1719.38,-317.25 1896.62,-317.25 1896.62,-353.25"/>
<text xml:space="preserve" text-anchor="middle" x="1808" y="-330.2" font-family="Times,serif" font-size="14.00">No_Basis_Deny_Recognition</text>
</g>
<!-- 2fece549&#45;&gt;35d1774b -->
<g id="edge12" class="edge">
<title>2fece549&#45;&gt;35d1774b</title>
<path fill="none" stroke="black" d="M1808,-392.33C1808,-384.18 1808,-374.27 1808,-365.05"/>
<polygon fill="black" stroke="black" points="1811.5,-365.06 1808,-355.06 1804.5,-365.06 1811.5,-365.06"/>
</g>
<!-- 6a458c37 -->
<g id="node15" class="node">
<title>6a458c37</title>
<polygon fill="none" stroke="black" points="1701.75,-353.25 1546.25,-353.25 1546.25,-317.25 1701.75,-317.25 1701.75,-353.25"/>
<text xml:space="preserve" text-anchor="middle" x="1624" y="-330.2" font-family="Times,serif" font-size="14.00">SS_Couples_May_Marry</text>
</g>
<!-- 2fece549&#45;&gt;6a458c37 -->
<g id="edge11" class="edge">
<title>2fece549&#45;&gt;6a458c37</title>
<path fill="none" stroke="black" d="M1786.53,-401.17C1760.13,-390.63 1714.36,-372.34 1678.1,-357.86"/>
<polygon fill="black" stroke="black" points="1679.66,-354.72 1669.08,-354.26 1677.07,-361.22 1679.66,-354.72"/>
</g>
<!-- var_ebc3249b -->
<g id="node30" class="node">
<title>var_ebc3249b</title>
<polygon fill="lightyellow" stroke="black" points="1822.88,-280.25 1593.12,-280.25 1593.12,-239.25 1822.88,-239.25 1822.88,-280.25"/>
<text xml:space="preserve" text-anchor="middle" x="1708" y="-262.95" font-family="Times,serif" font-size="14.00">No_Basis_Deny_Recognition</text>
<text xml:space="preserve" text-anchor="middle" x="1708" y="-246.45" font-family="Times,serif" font-size="14.00">(claim: Recognition lacks lawful basis)</text>
</g>
<!-- 35d1774b&#45;&gt;var_ebc3249b -->
<g id="edge20" class="edge">
<title>35d1774b&#45;&gt;var_ebc3249b</title>
<path fill="none" stroke="black" stroke-dasharray="1,5" d="M1784.3,-316.83C1769.52,-305.96 1750.44,-291.94 1735.06,-280.64"/>
</g>
<!-- 4c2a15fe -->
<g id="node14" class="node">
<title>4c2a15fe</title>
<polygon fill="none" stroke="black" points="1989,-638.75 1922.17,-620.75 1989,-602.75 2055.83,-620.75 1989,-638.75"/>
<text xml:space="preserve" text-anchor="middle" x="1989" y="-615.7" font-family="Times,serif" font-size="14.00">IMPLIES</text>
</g>
<!-- 4c2a15fe&#45;&gt;01f553c9 -->
<g id="edge9" class="edge">
<title>4c2a15fe&#45;&gt;01f553c9</title>
<path fill="none" stroke="black" d="M1974.16,-606.61C1961.96,-595.8 1944.42,-580.28 1930.2,-567.68"/>
<polygon fill="black" stroke="black" points="1932.78,-565.29 1922.97,-561.28 1928.14,-570.53 1932.78,-565.29"/>
</g>
<!-- b28fad68 -->
<g id="node16" class="node">
<title>b28fad68</title>
<polygon fill="none" stroke="black" points="2277,-563.25 2081,-563.25 2081,-527.25 2277,-527.25 2277,-563.25"/>
<text xml:space="preserve" text-anchor="middle" x="2179" y="-540.2" font-family="Times,serif" font-size="14.00">States_Must_License_Recognize</text>
</g>
<!-- 4c2a15fe&#45;&gt;b28fad68 -->
<g id="edge13" class="edge">
<title>4c2a15fe&#45;&gt;b28fad68</title>
<path fill="none" stroke="black" d="M2015.42,-609.53C2043.14,-598.81 2087.55,-581.63 2123.1,-567.87"/>
<polygon fill="black" stroke="black" points="2124.35,-571.14 2132.41,-564.27 2121.82,-564.62 2124.35,-571.14"/>
</g>
<!-- 6a458c37&#45;&gt;var_67ca1f55 -->
<g id="edge21" class="edge">
<title>6a458c37&#45;&gt;var_67ca1f55</title>
<path fill="none" stroke="black" stroke-dasharray="1,5" d="M1563.63,-316.87C1553.76,-314.21 1543.62,-311.57 1534,-309.25 1491.31,-298.95 1443.93,-288.94 1402.9,-280.71"/>
</g>
<!-- var_9138c85e -->
<g id="node26" class="node">
<title>var_9138c85e</title>
<polygon fill="lightyellow" stroke="black" points="2573.5,-431.25 2326.5,-431.25 2326.5,-390.25 2573.5,-390.25 2573.5,-431.25"/>
<text xml:space="preserve" text-anchor="middle" x="2450" y="-413.95" font-family="Times,serif" font-size="14.00">States_Must_License_Recognize</text>
<text xml:space="preserve" text-anchor="middle" x="2450" y="-397.45" font-family="Times,serif" font-size="14.00">(claim: States must license and recognize)</text>
</g>
<!-- b28fad68&#45;&gt;var_9138c85e -->
<g id="edge22" class="edge">
<title>b28fad68&#45;&gt;var_9138c85e</title>
<path fill="none" stroke="black" stroke-dasharray="1,5" d="M2222.03,-526.84C2250.67,-514.95 2288.96,-498.46 2322,-482.25 2354.45,-466.32 2390.44,-446.28 2415.97,-431.64"/>
</g>
<!-- 5c5a9c0d_anchor -->
<!-- 0dd0baa8 -->
<g id="node18" class="node">
<title>0dd0baa8</title>
<polygon fill="none" stroke="black" points="1521.62,-353.25 1344.38,-353.25 1344.38,-317.25 1521.62,-317.25 1521.62,-353.25"/>
<text xml:space="preserve" text-anchor="middle" x="1433" y="-330.2" font-family="Times,serif" font-size="14.00">No_Basis_Deny_Recognition</text>
</g>
<!-- 0dd0baa8&#45;&gt;var_ebc3249b -->
<g id="edge23" class="edge">
<title>0dd0baa8&#45;&gt;var_ebc3249b</title>
<path fill="none" stroke="black" stroke-dasharray="1,5" d="M1498.17,-316.83C1538.83,-305.96 1591.29,-291.94 1633.58,-280.64"/>
</g>
<!-- 657c46af -->
<g id="node19" class="node">
<title>657c46af</title>
<polygon fill="none" stroke="black" points="1326.75,-353.25 1171.25,-353.25 1171.25,-317.25 1326.75,-317.25 1326.75,-353.25"/>
<text xml:space="preserve" text-anchor="middle" x="1249" y="-330.2" font-family="Times,serif" font-size="14.00">SS_Couples_May_Marry</text>
</g>
<!-- 657c46af&#45;&gt;var_67ca1f55 -->
<g id="edge24" class="edge">
<title>657c46af&#45;&gt;var_67ca1f55</title>
<path fill="none" stroke="black" stroke-dasharray="1,5" d="M1260.61,-316.83C1267.86,-305.96 1277.2,-291.94 1284.74,-280.64"/>
</g>
<!-- 720e4235 -->
<g id="node20" class="node">
<title>720e4235</title>
<polygon fill="none" stroke="black" points="1303,-428.75 1236.17,-410.75 1303,-392.75 1369.83,-410.75 1303,-428.75"/>
<text xml:space="preserve" text-anchor="middle" x="1303" y="-405.7" font-family="Times,serif" font-size="14.00">IMPLIES</text>
</g>
<!-- 720e4235&#45;&gt;0dd0baa8 -->
<g id="edge15" class="edge">
<title>720e4235&#45;&gt;0dd0baa8</title>
<path fill="none" stroke="black" d="M1323.89,-397.94C1342.39,-387.48 1369.93,-371.91 1392.71,-359.03"/>
<polygon fill="black" stroke="black" points="1394.17,-362.22 1401.15,-354.26 1390.72,-356.13 1394.17,-362.22"/>
</g>
<!-- 720e4235&#45;&gt;657c46af -->
<g id="edge14" class="edge">
<title>720e4235&#45;&gt;657c46af</title>
<path fill="none" stroke="black" d="M1292.33,-395.23C1285.53,-385.97 1276.52,-373.71 1268.48,-362.76"/>
<polygon fill="black" stroke="black" points="1271.37,-360.79 1262.63,-354.81 1265.73,-364.94 1271.37,-360.79"/>
</g>
<!-- b2df5124_anchor -->
<!-- var_21c0740d -->
<g id="node22" class="node">
<title>var_21c0740d</title>
<polygon fill="lightblue" stroke="black" points="2335.38,-780.25 2228.62,-780.25 2228.62,-739.25 2335.38,-739.25 2335.38,-780.25"/>
<text xml:space="preserve" text-anchor="middle" x="2282" y="-762.95" font-family="Times,serif" font-size="14.00">P2</text>
<text xml:space="preserve" text-anchor="middle" x="2282" y="-746.45" font-family="Times,serif" font-size="14.00">(premise&#45;bound)</text>
</g>
<!-- var_21c0740d&#45;&gt;5c5a9c0d_anchor -->
<g id="edge25" class="edge">
<title>var_21c0740d&#45;&gt;5c5a9c0d_anchor</title>
<path fill="none" stroke="blue" stroke-width="2" d="M2282,-738.83C2282,-730.18 2282,-719.41 2282,-707.93"/>
<polygon fill="blue" stroke="blue" stroke-width="2" points="2285.5,-709.77 2282,-699.77 2278.5,-709.77 2285.5,-709.77"/>
<text xml:space="preserve" text-anchor="middle" x="2289.12" y="-707.95" font-family="Times,serif" font-size="14.00">P2</text>
</g>
<!-- var_65be93c1 -->
<g id="node23" class="node">
<title>var_65be93c1</title>
<polygon fill="lightblue" stroke="black" points="1512.38,-565.75 1405.62,-565.75 1405.62,-524.75 1512.38,-524.75 1512.38,-565.75"/>
<text xml:space="preserve" text-anchor="middle" x="1459" y="-548.45" font-family="Times,serif" font-size="14.00">P1</text>
<text xml:space="preserve" text-anchor="middle" x="1459" y="-531.95" font-family="Times,serif" font-size="14.00">(premise&#45;bound)</text>
</g>
<!-- var_65be93c1&#45;&gt;b2df5124_anchor -->
<g id="edge26" class="edge">
<title>var_65be93c1&#45;&gt;b2df5124_anchor</title>
<path fill="none" stroke="blue" stroke-width="2" d="M1459,-524.41C1459,-515.72 1459,-504.89 1459,-493.41"/>
<polygon fill="blue" stroke="blue" stroke-width="2" points="1462.5,-495.28 1459,-485.28 1455.5,-495.28 1462.5,-495.28"/>
<text xml:space="preserve" text-anchor="middle" x="1466.12" y="-493.45" font-family="Times,serif" font-size="14.00">P1</text>
</g>
<!-- claim_67ca1f55 -->
<g id="node31" class="node">
<title>claim_67ca1f55</title>
<polygon fill="lightyellow" stroke="none" points="1146.75,-44.75 1146.75,-148.75 1507.25,-148.75 1507.25,-44.75 1146.75,-44.75"/>
<text xml:space="preserve" text-anchor="start" x="1253.12" y="-129.45" font-family="Times,serif" font-weight="bold" font-size="14.00">SS_Couples_May_Marry</text>
<text xml:space="preserve" text-anchor="start" x="1222.38" y="-100.95" font-family="Times,serif" font-style="italic" font-size="14.00">Same&#45;sex couples have marriage right</text>
<text xml:space="preserve" text-anchor="start" x="1153.75" y="-72" font-family="Times,serif" font-size="14.00">Same&#45;sex couples may exercise the fundamental right to marry</text>
<text xml:space="preserve" text-anchor="start" x="1153.75" y="-55.5" font-family="Times,serif" font-size="14.00">under the Fourteenth Amendment.</text>
<polygon fill="none" stroke="black" points="1146.75,-44.75 1146.75,-148.75 1507.25,-148.75 1507.25,-44.75 1146.75,-44.75"/>
</g>
<!-- var_67ca1f55&#45;&gt;claim_67ca1f55 -->
<!-- var_773f95c3 -->
<g id="node25" class="node">
<title>var_773f95c3</title>
<polygon fill="lightblue" stroke="black" points="827.38,-994.75 720.62,-994.75 720.62,-953.75 827.38,-953.75 827.38,-994.75"/>
<text xml:space="preserve" text-anchor="middle" x="774" y="-977.45" font-family="Times,serif" font-size="14.00">P0</text>
<text xml:space="preserve" text-anchor="middle" x="774" y="-960.95" font-family="Times,serif" font-size="14.00">(premise&#45;bound)</text>
</g>
<!-- var_773f95c3&#45;&gt;55e04b2a_anchor -->
<g id="edge27" class="edge">
<title>var_773f95c3&#45;&gt;55e04b2a_anchor</title>
<path fill="none" stroke="blue" stroke-width="2" d="M774,-953.33C774,-944.68 774,-933.91 774,-922.43"/>
<polygon fill="blue" stroke="blue" stroke-width="2" points="777.5,-924.27 774,-914.27 770.5,-924.27 777.5,-924.27"/>
<text xml:space="preserve" text-anchor="middle" x="781.12" y="-922.45" font-family="Times,serif" font-size="14.00">P0</text>
</g>
<!-- claim_9138c85e -->
<g id="node32" class="node">
<title>claim_9138c85e</title>
<polygon fill="lightyellow" stroke="none" points="1909,-36.5 1909,-157 2265,-157 2265,-36.5 1909,-36.5"/>
<text xml:space="preserve" text-anchor="start" x="1993.25" y="-137.7" font-family="Times,serif" font-weight="bold" font-size="14.00">States_Must_License_Recognize</text>
<text xml:space="preserve" text-anchor="start" x="1995.5" y="-109.2" font-family="Times,serif" font-style="italic" font-size="14.00">States must license and recognize</text>
<text xml:space="preserve" text-anchor="start" x="1916" y="-80.25" font-family="Times,serif" font-size="14.00">States must license marriages between two people of the same</text>
<text xml:space="preserve" text-anchor="start" x="1916" y="-63.75" font-family="Times,serif" font-size="14.00">sex and must recognize lawful same&#45;sex marriages performed</text>
<text xml:space="preserve" text-anchor="start" x="1916" y="-47.25" font-family="Times,serif" font-size="14.00">in another State.</text>
<polygon fill="none" stroke="black" points="1909,-36.5 1909,-157 2265,-157 2265,-36.5 1909,-36.5"/>
</g>
<!-- var_9138c85e&#45;&gt;claim_9138c85e -->
<!-- claim_9e33915f -->
<g id="node33" class="node">
<title>claim_9e33915f</title>
<polygon fill="lightyellow" stroke="none" points="27.75,-44.75 27.75,-148.75 358.25,-148.75 358.25,-44.75 27.75,-44.75"/>
<text xml:space="preserve" text-anchor="start" x="122.88" y="-129.45" font-family="Times,serif" font-weight="bold" font-size="14.00">Marriage_Fundamental</text>
<text xml:space="preserve" text-anchor="start" x="124.75" y="-100.95" font-family="Times,serif" font-style="italic" font-size="14.00">Marriage is fundamental</text>
<text xml:space="preserve" text-anchor="start" x="34.75" y="-72" font-family="Times,serif" font-size="14.00">The right to marry is a fundamental right protected by the</text>
<text xml:space="preserve" text-anchor="start" x="34.75" y="-55.5" font-family="Times,serif" font-size="14.00">Constitution under the Fourteenth Amendment.</text>
<polygon fill="none" stroke="black" points="27.75,-44.75 27.75,-148.75 358.25,-148.75 358.25,-44.75 27.75,-44.75"/>
</g>
<!-- var_9e33915f&#45;&gt;claim_9e33915f -->
<!-- claim_ab418381 -->
<g id="node34" class="node">
<title>claim_ab418381</title>
<polygon fill="lightyellow" stroke="none" points="775.38,-36.5 775.38,-157 1112.62,-157 1112.62,-36.5 775.38,-36.5"/>
<text xml:space="preserve" text-anchor="start" x="866" y="-137.7" font-family="Times,serif" font-weight="bold" font-size="14.00">Exclusion_Burdens_Rights</text>
<text xml:space="preserve" text-anchor="start" x="838.62" y="-109.2" font-family="Times,serif" font-style="italic" font-size="14.00">Exclusion burdens liberty and equality</text>
<text xml:space="preserve" text-anchor="start" x="782.38" y="-80.25" font-family="Times,serif" font-size="14.00">State laws excluding same&#45;sex couples from civil marriage</text>
<text xml:space="preserve" text-anchor="start" x="782.38" y="-63.75" font-family="Times,serif" font-size="14.00">burden their liberty and abridge central precepts of</text>
<text xml:space="preserve" text-anchor="start" x="782.38" y="-47.25" font-family="Times,serif" font-size="14.00">equality.</text>
<polygon fill="none" stroke="black" points="775.38,-36.5 775.38,-157 1112.62,-157 1112.62,-36.5 775.38,-36.5"/>
</g>
<!-- var_ab418381&#45;&gt;claim_ab418381 -->
<!-- claim_d9520490 -->
<g id="node35" class="node">
<title>claim_d9520490</title>
<polygon fill="lightyellow" stroke="none" points="392.75,-44.75 392.75,-148.75 741.25,-148.75 741.25,-44.75 392.75,-44.75"/>
<text xml:space="preserve" text-anchor="start" x="496.5" y="-129.45" font-family="Times,serif" font-weight="bold" font-size="14.00">Reasons_Apply_Equally</text>
<text xml:space="preserve" text-anchor="start" x="505.88" y="-100.95" font-family="Times,serif" font-style="italic" font-size="14.00">Reasons apply equally</text>
<text xml:space="preserve" text-anchor="start" x="399.75" y="-72" font-family="Times,serif" font-size="14.00">The constitutional reasons that make marriage a fundamental</text>
<text xml:space="preserve" text-anchor="start" x="399.75" y="-55.5" font-family="Times,serif" font-size="14.00">right apply with equal force to same&#45;sex couples.</text>
<polygon fill="none" stroke="black" points="392.75,-44.75 392.75,-148.75 741.25,-148.75 741.25,-44.75 392.75,-44.75"/>
</g>
<!-- var_d9520490&#45;&gt;claim_d9520490 -->
<!-- claim_ebc3249b -->
<g id="node36" class="node">
<title>claim_ebc3249b</title>
<polygon fill="lightyellow" stroke="none" points="1540.88,-20 1540.88,-173.5 1875.12,-173.5 1875.12,-20 1540.88,-20"/>
<text xml:space="preserve" text-anchor="start" x="1625.12" y="-154.2" font-family="Times,serif" font-weight="bold" font-size="14.00">No_Basis_Deny_Recognition</text>
<text xml:space="preserve" text-anchor="start" x="1625.12" y="-125.7" font-family="Times,serif" font-style="italic" font-size="14.00">Recognition lacks lawful basis</text>
<text xml:space="preserve" text-anchor="start" x="1547.88" y="-96.75" font-family="Times,serif" font-size="14.00">If same&#45;sex couples may exercise the fundamental right to</text>
<text xml:space="preserve" text-anchor="start" x="1547.88" y="-80.25" font-family="Times,serif" font-size="14.00">marry in all States, then no lawful basis exists for a State</text>
<text xml:space="preserve" text-anchor="start" x="1547.88" y="-63.75" font-family="Times,serif" font-size="14.00">to refuse recognition to a lawful same&#45;sex marriage</text>
<text xml:space="preserve" text-anchor="start" x="1547.88" y="-47.25" font-family="Times,serif" font-size="14.00">performed in another State because of its same&#45;sex</text>
<text xml:space="preserve" text-anchor="start" x="1547.88" y="-30.75" font-family="Times,serif" font-size="14.00">character.</text>
<polygon fill="none" stroke="black" points="1540.88,-20 1540.88,-173.5 1875.12,-173.5 1875.12,-20 1540.88,-20"/>
</g>
<!-- var_ebc3249b&#45;&gt;claim_ebc3249b -->
</g>
</svg>
